<svg width="40" height="40" viewBox="0 0 40 40" fill="none" xmlns="http://www.w3.org/2000/svg">
<rect y="40" width="40" height="40" rx="5" transform="rotate(-90 0 40)" fill="#272A31"/>
<path d="M10.3488 18.839C10.3488 18.839 20.0789 14.8877 23.4534 13.4963C24.747 12.9398 29.134 11.1589 29.134 11.1589C29.134 11.1589 31.1588 10.3798 30.99 12.272C30.9337 13.0511 30.4838 15.7781 30.0339 18.7277C29.3589 22.9018 28.6278 27.4653 28.6278 27.4653C28.6278 27.4653 28.5153 28.7453 27.5592 28.9679C26.6031 29.1905 25.0282 28.1888 24.747 27.9662C24.522 27.7993 20.5288 25.2948 19.0665 24.0704C18.6727 23.7365 18.2228 23.0687 19.1227 22.2896C21.1475 20.453 23.5659 18.1712 25.0282 16.7243C25.7032 16.0564 26.378 14.4981 23.5659 16.3903C19.5727 19.1173 15.6356 21.6774 15.6356 21.6774C15.6356 21.6774 14.7357 22.2339 13.0485 21.733C11.3611 21.2322 9.39259 20.5643 9.39259 20.5643C9.39259 20.5643 8.04283 19.7295 10.3488 18.839Z" fill="#ABABAB"/>
</svg>
