<svg width="40" height="40" viewBox="0 0 40 40" fill="none" xmlns="http://www.w3.org/2000/svg">
<rect y="40" width="40" height="40" rx="5" transform="rotate(-90 0 40)" fill="#272A31"/>
<path d="M30.7039 13.1624C30.0052 13.4664 29.2707 13.6781 28.5184 13.7922C28.8701 13.7313 29.3876 13.0913 29.5936 12.8323C29.9065 12.4416 30.145 11.9955 30.297 11.5168C30.297 11.4813 30.3321 11.4305 30.297 11.4051C30.2792 11.3953 30.2594 11.3902 30.2392 11.3902C30.219 11.3902 30.1991 11.3953 30.1814 11.4051C29.3646 11.8523 28.4952 12.1936 27.594 12.4209C27.5626 12.4306 27.5291 12.4315 27.4973 12.4234C27.4654 12.4154 27.4363 12.3987 27.4131 12.3752C27.3429 12.2907 27.2674 12.211 27.187 12.1365C26.8194 11.8035 26.4023 11.531 25.9511 11.3289C25.3419 11.0763 24.6839 10.9669 24.0268 11.0089C23.3892 11.0496 22.7667 11.2225 22.1981 11.5168C21.638 11.8271 21.1459 12.2487 20.7511 12.7561C20.3358 13.2784 20.0361 13.8846 19.8719 14.5338C19.7365 15.1513 19.7211 15.7896 19.8267 16.413C19.8267 16.5197 19.8267 16.5349 19.7362 16.5197C16.154 15.9864 13.2149 14.7014 10.8134 11.9435C10.7079 11.8216 10.6526 11.8216 10.5672 11.9435C9.52216 13.5484 10.0296 16.088 11.3359 17.3425C11.5117 17.5101 11.6926 17.6726 11.8835 17.825C11.2846 17.782 10.7003 17.6179 10.1653 17.3425C10.0648 17.2764 10.0095 17.312 10.0045 17.4339C9.99024 17.6029 9.99024 17.7728 10.0045 17.9418C10.1093 18.7517 10.425 19.5189 10.9194 20.165C11.4137 20.8111 12.0689 21.3129 12.818 21.619C13.0006 21.6981 13.1909 21.7577 13.3857 21.7968C12.8313 21.9071 12.2626 21.9243 11.7026 21.8476C11.5821 21.8222 11.5368 21.8882 11.5821 22.005C12.3206 24.0366 13.9233 24.6563 15.099 25.0016C15.2597 25.027 15.4205 25.027 15.6014 25.0677C15.6014 25.0677 15.6014 25.0677 15.5712 25.0981C15.2246 25.7381 13.8228 26.1698 13.1797 26.3933C12.0059 26.8195 10.7544 26.9824 9.51211 26.8707C9.31617 26.8402 9.27096 26.8453 9.22071 26.8707C9.17047 26.8961 9.22071 26.952 9.27598 27.0028C9.52719 27.1704 9.77839 27.3177 10.0396 27.4599C10.8174 27.8887 11.6397 28.2294 12.4914 28.4757C16.9026 29.7048 21.8665 28.8007 25.1774 25.474C27.7799 22.8634 28.6943 19.2623 28.6943 15.6562C28.6943 15.5191 28.8601 15.4378 28.9555 15.3667C29.6139 14.8481 30.1944 14.2356 30.6788 13.5484C30.7627 13.446 30.8057 13.3156 30.7994 13.1828C30.7994 13.1066 30.7994 13.1218 30.7039 13.1624Z" fill="#ABABAB"/>
</svg>
