<svg width="40" height="40" viewBox="0 0 40 40" fill="none" xmlns="http://www.w3.org/2000/svg">
<rect y="40" width="40" height="40" rx="5" transform="rotate(-90 0 40)" fill="#272A31"/>
<path d="M11 29L12.2925 24.2023C11.2501 22.3334 10.919 20.1525 11.3598 18.0598C11.8006 15.9672 12.9838 14.1031 14.6922 12.8097C16.4007 11.5164 18.5199 10.8804 20.6609 11.0186C22.8018 11.1568 24.821 12.0598 26.3479 13.562C27.8747 15.0641 28.8068 17.0647 28.9732 19.1965C29.1395 21.3284 28.5289 23.4485 27.2534 25.1678C25.9779 26.8872 24.123 28.0905 22.0292 28.5568C19.9354 29.0232 17.7431 28.7214 15.8545 27.7068L11 29ZM16.0886 25.9114L16.3888 26.0889C17.7567 26.897 19.3544 27.2314 20.933 27.04C22.5115 26.8486 23.9821 26.1422 25.1157 25.0308C26.2494 23.9194 26.9822 22.4655 27.2002 20.8956C27.4182 19.3257 27.109 17.7281 26.3208 16.3516C25.5325 14.9752 24.3096 13.8973 22.8426 13.2859C21.3755 12.6745 19.7467 12.5639 18.21 12.9714C16.6734 13.3789 15.3151 14.2816 14.3469 15.5388C13.3787 16.796 12.855 18.3371 12.8573 19.9219C12.856 21.236 13.2207 22.5247 13.9107 23.6444L14.099 23.9538L13.3764 26.6316L16.0886 25.9114Z" fill="#ABABAB"/>
<path fill-rule="evenodd" clip-rule="evenodd" d="M23.9367 21.298C23.7531 21.1561 23.5381 21.0562 23.3082 21.0059C23.0782 20.9557 22.8393 20.9564 22.6097 21.008C22.2647 21.1454 22.0418 21.6642 21.8188 21.9236C21.7718 21.9858 21.7027 22.0294 21.6246 22.0462C21.5464 22.0631 21.4645 22.052 21.3942 22.0151C20.1311 21.5411 19.0724 20.6717 18.39 19.5482C18.3317 19.4781 18.3042 19.3891 18.3131 19.2999C18.322 19.2108 18.3667 19.1284 18.4377 19.0701C18.6864 18.8343 18.8689 18.5421 18.9685 18.2207C18.9906 17.8662 18.9059 17.5131 18.7243 17.2034C18.584 16.7693 18.317 16.3828 17.9547 16.0895C17.7679 16.009 17.5607 15.982 17.3582 16.0118C17.1557 16.0416 16.9666 16.1269 16.8135 16.2574C16.5478 16.477 16.337 16.751 16.1964 17.0591C16.0559 17.3672 15.9892 17.7015 16.0014 18.0376C16.0022 18.2263 16.0272 18.4142 16.0757 18.5971C16.199 19.0365 16.3885 19.4563 16.6384 19.8433C16.8186 20.1396 17.0153 20.4266 17.2275 20.7028C17.9173 21.6102 18.7844 22.3807 19.7806 22.9714C20.2805 23.2715 20.8148 23.5156 21.373 23.6987C21.9528 23.9506 22.5929 24.0472 23.2254 23.9785C23.5858 23.9262 23.9272 23.7898 24.2197 23.5814C24.5122 23.373 24.7467 23.0989 24.9027 22.7832C24.9943 22.5925 25.0221 22.3793 24.9823 22.1728C24.8868 21.7506 24.2976 21.5014 23.9367 21.298Z" fill="#ABABAB"/>
</svg>
