<svg width="40" height="40" viewBox="0 0 40 40" fill="none" xmlns="http://www.w3.org/2000/svg">
<rect y="40" width="40" height="40" rx="5" transform="rotate(-90 0 40)" fill="#272A31"/>
<path d="M17.0007 20C17.0007 18.3432 18.3435 16.9998 20.0004 16.9998C21.6572 16.9998 23.0007 18.3432 23.0007 20C23.0007 21.6568 21.6572 23.0002 20.0004 23.0002C18.3435 23.0002 17.0007 21.6568 17.0007 20ZM15.3788 20C15.3788 22.5524 17.4479 24.6214 20.0004 24.6214C22.5529 24.6214 24.6219 22.5524 24.6219 20C24.6219 17.4476 22.5529 15.3786 20.0004 15.3786C17.4479 15.3786 15.3788 17.4476 15.3788 20ZM23.7249 15.1954C23.7248 15.409 23.788 15.6178 23.9066 15.7955C24.0252 15.9731 24.1939 16.1116 24.3912 16.1934C24.5885 16.2752 24.8057 16.2967 25.0152 16.2551C25.2247 16.2135 25.4172 16.1108 25.5683 15.9598C25.7194 15.8088 25.8223 15.6164 25.8641 15.4069C25.9059 15.1974 25.8846 14.9803 25.8029 14.7829C25.7212 14.5855 25.5829 14.4168 25.4053 14.2981C25.2277 14.1793 25.0189 14.1159 24.8053 14.1158H24.8049C24.5186 14.1159 24.244 14.2297 24.0415 14.4321C23.839 14.6345 23.7251 14.909 23.7249 15.1954ZM16.3642 27.3258C15.4867 27.2858 15.0098 27.1397 14.6928 27.0162C14.2726 26.8526 13.9728 26.6578 13.6576 26.343C13.3423 26.0282 13.1472 25.7287 12.9843 25.3085C12.8608 24.9917 12.7146 24.5146 12.6747 23.6372C12.6311 22.6885 12.6224 22.4035 12.6224 20.0001C12.6224 17.5966 12.6318 17.3125 12.6747 16.363C12.7147 15.4855 12.8619 15.0094 12.9843 14.6917C13.1479 14.2715 13.3428 13.9717 13.6576 13.6564C13.9724 13.3412 14.2719 13.1461 14.6928 12.9832C15.0096 12.8597 15.4867 12.7135 16.3642 12.6736C17.3129 12.63 17.5979 12.6213 20.0004 12.6213C22.4028 12.6213 22.6881 12.6307 23.6376 12.6736C24.5151 12.7136 24.9912 12.8608 25.309 12.9832C25.7292 13.1461 26.029 13.3417 26.3442 13.6564C26.6595 13.9712 26.8539 14.2715 27.0175 14.6917C27.141 15.0085 27.2872 15.4855 27.3271 16.363C27.3707 17.3125 27.3794 17.5966 27.3794 20.0001C27.3794 22.4035 27.3707 22.6877 27.3271 23.6372C27.2871 24.5146 27.1402 24.9915 27.0175 25.3085C26.8539 25.7287 26.659 26.0285 26.3442 26.343C26.0294 26.6575 25.7292 26.8526 25.309 27.0162C24.9922 27.1397 24.5151 27.2859 23.6376 27.3258C22.6889 27.3694 22.4039 27.3781 20.0004 27.3781C17.5968 27.3781 17.3126 27.3694 16.3642 27.3258ZM16.2897 11.0545C15.3315 11.0981 14.6768 11.2501 14.1051 11.4725C13.5129 11.7023 13.0116 12.0105 12.5107 12.5106C12.0098 13.0107 11.7023 13.5128 11.4726 14.1049C11.2501 14.677 11.0981 15.3314 11.0545 16.2895C11.0102 17.2491 11 17.5559 11 20C11 22.4441 11.0102 22.7509 11.0545 23.7105C11.0981 24.6687 11.2501 25.323 11.4726 25.8951C11.7023 26.4868 12.0098 26.9895 12.5107 27.4894C13.0115 27.9893 13.5129 28.2971 14.1051 28.5275C14.6779 28.7499 15.3315 28.9019 16.2897 28.9455C17.2499 28.9891 17.5562 29 20.0004 29C22.4446 29 22.7514 28.9898 23.711 28.9455C24.6692 28.9019 25.3235 28.7499 25.8957 28.5275C26.4875 28.2971 26.9891 27.9895 27.49 27.4894C27.991 26.9893 28.2978 26.4868 28.5282 25.8951C28.7507 25.323 28.9033 24.6686 28.9462 23.7105C28.9898 22.7502 29 22.4441 29 20C29 17.5559 28.9898 17.2491 28.9462 16.2895C28.9026 15.3313 28.7507 14.6767 28.5282 14.1049C28.2978 13.5132 27.9902 13.0115 27.49 12.5106C26.9899 12.0097 26.4875 11.7023 25.8964 11.4725C25.3235 11.2501 24.6692 11.0974 23.7117 11.0545C22.7521 11.0109 22.4453 11 20.0011 11C17.5569 11 17.2499 11.0102 16.2897 11.0545Z" fill="#ABABAB"/>
</svg>
