<svg width="40" height="40" viewBox="0 0 40 40" fill="none" xmlns="http://www.w3.org/2000/svg">
<rect y="40" width="40" height="40" rx="5" transform="rotate(-90 0 40)" fill="#272A31"/>
<path d="M15.082 28.9996V16.8546H11.2202V28.9996H15.0824H15.082ZM13.1519 15.1967C14.4983 15.1967 15.3366 14.2641 15.3366 13.0986C15.3114 11.9066 14.4983 11 13.1775 11C11.8558 11 10.9926 11.9066 10.9926 13.0985C10.9926 14.264 11.8305 15.1966 13.1266 15.1966H13.1516L13.1519 15.1967ZM17.2196 28.9996H21.0811V22.218C21.0811 21.8555 21.1063 21.4921 21.2083 21.2331C21.4874 20.5076 22.1228 19.7566 23.1899 19.7566C24.5869 19.7566 25.1461 20.8702 25.1461 22.503V28.9996H29.0075V22.036C29.0075 18.3057 27.1026 16.5699 24.5619 16.5699C22.4788 16.5699 21.564 17.7869 21.0557 18.6158H21.0814V16.855H17.2198C17.2702 17.9943 17.2195 29 17.2195 29L17.2196 28.9996Z" fill="#ABABAB"/>
</svg>
